<?xml version="1.0" encoding="UTF-8" standalone="no"?>
<!-- Created with Inkscape (http://www.inkscape.org/) -->

<svg
   width="512"
   height="512"
   viewBox="0 0 512 512"
   version="1.1"
   id="svg1"
   inkscape:version="1.3.2 (091e20ef0f, 2023-11-25)"
   sodipodi:docname="wreath.svg"
   xmlns:inkscape="http://www.inkscape.org/namespaces/inkscape"
   xmlns:sodipodi="http://sodipodi.sourceforge.net/DTD/sodipodi-0.dtd"
   xmlns="http://www.w3.org/2000/svg"
   xmlns:svg="http://www.w3.org/2000/svg">
  <sodipodi:namedview
     id="namedview1"
     pagecolor="#ffffff"
     bordercolor="#000000"
     borderopacity="0.25"
     inkscape:showpageshadow="2"
     inkscape:pageopacity="0.0"
     inkscape:pagecheckerboard="0"
     inkscape:deskcolor="#d1d1d1"
     inkscape:document-units="px"
     inkscape:zoom="0.5448313"
     inkscape:cx="-66.993214"
     inkscape:cy="131.23328"
     inkscape:window-width="1920"
     inkscape:window-height="1006"
     inkscape:window-x="0"
     inkscape:window-y="0"
     inkscape:window-maximized="1"
     inkscape:current-layer="layer1" />
  <defs
     id="defs1">
    <inkscape:path-effect
       effect="copy_rotate"
       starting_point="0,0"
       origin="141.19131,310.92619"
       id="path-effect1"
       is_visible="true"
       lpeversion="1.2"
       lpesatellites=""
       method="normal"
       num_copies="8"
       starting_angle="0"
       rotation_angle="60"
       gap="-0.01"
       copies_to_360="true"
       mirror_copies="false"
       split_items="false"
       link_styles="false" />
  </defs>
  <g
     inkscape:label="Layer 1"
     inkscape:groupmode="layer"
     id="layer1">
    <path
       style="fill:#4d4d4d"
       d="m 162.35319,292.90633 c -59.32618,-5.77526 37.09182,104.3501 -29.53915,-0.4185 m 10.59901,-9.26731 c -46.033666,37.86621 100.01454,47.55878 -21.18325,20.59141 m 0.94165,-14.04762 c -5.77526,59.32618 104.3501,-37.09182 -0.4185,29.53915 m -9.26731,-10.59901 c 37.86621,46.03367 47.55878,-100.01454 20.59141,21.18325 m -14.04762,-0.94165 c 59.32618,5.77526 -37.09182,-104.3501 29.53915,0.4185 m -10.59901,9.26731 c 46.03367,-37.86621 -100.014544,-47.55878 21.18325,-20.59141 m -0.94165,14.04762 c 5.77526,-59.32618 -104.3501,37.09182 0.4185,-29.53915 m 9.26731,10.59901 C 131.03077,267.11426 121.3382,413.16247 148.30557,291.96468"
       id="path1"
       sodipodi:nodetypes="cc"
       inkscape:path-effect="#path-effect1"
       inkscape:original-d="m 162.35319,292.90633 c -59.32618,-5.77526 37.09182,104.3501 -29.53915,-0.4185"
       transform="matrix(6.9461569,4.2036248,-4.2036248,6.9461569,582.1707,-2497.148)" />
  </g>
</svg>
